<svg width="96" height="96" viewBox="0 0 96 96" fill="none" xmlns="http://www.w3.org/2000/svg">
  <defs>
    <linearGradient id="sunCore" x1="35" y1="18" x2="58" y2="52" gradientUnits="userSpaceOnUse">
      <stop stop-color="#FFF59D" />
      <stop offset="0.55" stop-color="#FFE45C" />
      <stop offset="1" stop-color="#FFB300" />
    </linearGradient>
    <linearGradient id="sunEdge" x1="42" y1="13" x2="42" y2="44" gradientUnits="userSpaceOnUse">
      <stop stop-color="#FFD95A" />
      <stop offset="1" stop-color="#F59E0B" />
    </linearGradient>
    <linearGradient id="blueWave" x1="18" y1="38" x2="86" y2="61" gradientUnits="userSpaceOnUse">
      <stop stop-color="#1D4ED8" />
      <stop offset="1" stop-color="#0F2F8C" />
    </linearGradient>
    <linearGradient id="redWave" x1="25" y1="57" x2="85" y2="73" gradientUnits="userSpaceOnUse">
      <stop stop-color="#EF4444" />
      <stop offset="1" stop-color="#B91C1C" />
    </linearGradient>
    <linearGradient id="goldTrail" x1="28" y1="71" x2="79" y2="82" gradientUnits="userSpaceOnUse">
      <stop stop-color="#FACC15" />
      <stop offset="1" stop-color="#F59E0B" />
    </linearGradient>
  </defs>

  <g stroke="#FBBF24" stroke-width="3.6" stroke-linecap="round" opacity="0.95">
    <path d="M47 10L47 23" />
    <path d="M57.5 14.5L53.5 25" />
    <path d="M65.5 22L57 29" />
    <path d="M68.5 33L57.5 35.5" />
    <path d="M25.5 24L34.5 30.5" />
    <path d="M33 15L38 25.5" />
  </g>

  <path d="M35.5 18.5L42 24L35.5 30.5L29 24L35.5 18.5Z" fill="#FFD54A" stroke="#F59E0B" stroke-width="2" />
  <path d="M46.5 10.5L53 18L46.5 26L40 18L46.5 10.5Z" fill="#FFD54A" stroke="#F59E0B" stroke-width="2" />
  <path d="M58 18.5L65 24L58 30.5L51.5 24L58 18.5Z" fill="#FFD54A" stroke="#F59E0B" stroke-width="2" />

  <path d="M33 42C33 29.8 42.8 20 55 20C67.2 20 77 29.8 77 42V44H33V42Z" fill="url(#sunCore)" />
  <path d="M35 42C35 31.1 43.8 22.2 54.8 22.2C65.8 22.2 74.8 31.1 74.8 42" stroke="url(#sunEdge)" stroke-width="2.4" stroke-linecap="round" />
  <path d="M43.5 24.5C39.5 27.5 36.7 33.2 35.8 38.8" stroke="white" stroke-width="4" stroke-linecap="round" opacity="0.9" />

  <path d="M14 42.5C26 37 39 36.5 50.5 39C64.5 42 73.5 50.5 86 52.5C72 56.5 60 57.2 49 54.2C34 50.1 25.5 42.2 14 42.5Z" fill="url(#blueWave)" />
  <path d="M22.5 47.8C28.5 44.8 35.2 43.6 42.4 44C31 48.2 26.4 55.9 24.8 63.8C18.6 59.1 18.1 52 22.5 47.8Z" fill="#F8FAFC" />
  <path d="M27 52.8C39.5 48.4 52.8 49.4 64.5 54.5C71.6 57.6 78.4 59.2 87 59C75.2 63.8 64.6 65.4 54.3 63.8C43.1 62 34.2 56.6 27 52.8Z" fill="url(#redWave)" />
  <path d="M29 56.8C41.5 53.5 54.5 54.4 65.8 58.1C72.1 60.2 77.7 61 84.3 60.5C73.5 66.7 63.3 69.5 52.8 69.3C43.9 69.1 35.5 64.9 29 56.8Z" fill="url(#goldTrail)" />

  <path d="M77 41.8C81.2 41.2 84.5 42.1 87 44.2C84.1 45.5 81.1 46 77.9 45.9C80.1 47 81.9 48.5 83.2 50.6C79.5 51 76.6 50.1 74.2 47.9C76.3 50.2 77.4 52.7 77.6 55.5C74.1 54.8 71.5 53 69.9 50.2L77 41.8Z" fill="#1D4ED8" />

  <path d="M20.5 32.5L22.2 36L26 36.5L23.2 39.2L23.9 43L20.5 41.2L17.1 43L17.8 39.2L15 36.5L18.8 36L20.5 32.5Z" fill="#FDE047" stroke="#F59E0B" stroke-width="1.3" />
  <path d="M14.5 47L16 50L19.2 50.5L16.8 52.9L17.4 56.1L14.5 54.6L11.6 56.1L12.2 52.9L9.8 50.5L13 50L14.5 47Z" fill="#FDE047" stroke="#F59E0B" stroke-width="1.1" />
  <path d="M26 45.5L27 47.6L29.3 47.9L27.6 49.5L28 51.8L26 50.7L24 51.8L24.4 49.5L22.7 47.9L25 47.6L26 45.5Z" fill="#FDE047" stroke="#F59E0B" stroke-width="1" />
  <path d="M30.5 64.5L32.1 67.7L35.6 68.2L33 70.8L33.6 74.3L30.5 72.7L27.4 74.3L28 70.8L25.4 68.2L28.9 67.7L30.5 64.5Z" fill="#FDE047" stroke="#F59E0B" stroke-width="1.1" />
</svg>